<?xml version="1.0" encoding="UTF-8" standalone="no"?>
<!-- Uploaded to: SVG Repo, www.svgrepo.com, Generator: SVG Repo Mixer Tools -->

<svg
   width="16"
   height="19.999998"
   viewBox="0 0 2 2.4999998"
   aria-hidden="true"
   role="img"
   class="iconify iconify--gis"
   preserveAspectRatio="xMidYMid"
   version="1.1"
   id="svg3"
   xmlns="http://www.w3.org/2000/svg"
   xmlns:svg="http://www.w3.org/2000/svg">
  <defs
     id="defs3" />
  <g
     id="g3"
     transform="matrix(0.025,0,0,0.025,-0.2500006,1.2696974e-8)">
    <path
       d="M 50.001,0 C 33.65,0 20.25,13.36 20.25,29.666 c 0,6.318 2.018,12.19 5.433,17.016 L 46.37,82.445 c 2.897,3.785 4.823,3.066 7.232,-0.2 L 76.42,43.415 c 0.46,-0.834 0.822,-1.722 1.137,-2.629 a 29.28,29.28 0 0 0 2.192,-11.12 C 79.75,13.36 66.354,0 50.001,0 Z m 0,13.9 c 8.806,0 15.808,6.986 15.808,15.766 0,8.78 -7.002,15.763 -15.808,15.763 -8.805,0 -15.81,-6.982 -15.81,-15.763 0,-8.78 7.005,-15.765 15.81,-15.765 z"
       fill="#000000"
       id="path1" />
    <path
       d="m 68.913,48.908 -0.048,0.126 c 0.015,-0.038 0.027,-0.077 0.042,-0.115 z"
       fill="#000000"
       id="path2" />
    <path
       d="M 34.006,69.057 C 19.88,71.053 10,75.828 10,82.857 10,92.325 26.508,100 50,100 73.492,100 90,92.325 90,82.857 90,75.828 80.121,71.053 65.996,69.057 l -1.957,3.332 C 74.685,73.866 82,76.97 82,80.572 c 0,5.05 -14.327,9.143 -32,9.143 -17.673,0 -32,-4.093 -32,-9.143 -0.001,-3.59 7.266,-6.691 17.945,-8.174 -0.645,-1.114 -1.294,-2.226 -1.94,-3.341 z"
       fill="#000000"
       id="path3" />
  </g>
</svg>
